<mxfile host="Electron" modified="2023-11-13T15:15:54.456Z" agent="Mozilla/5.0 (Windows NT 10.0; Win64; x64) AppleWebKit/537.36 (KHTML, like Gecko) draw.io/22.0.3 Chrome/114.0.5735.289 Electron/25.8.4 Safari/537.36" etag="lmtKp2j-Pt-Vl4mrpJ7m" version="22.0.3" type="device">
  <diagram name="Страница — 1" id="nhJDnZ5u6vjr439e-qeW">
    <mxGraphModel dx="1434" dy="844" grid="1" gridSize="10" guides="1" tooltips="1" connect="1" arrows="1" fold="1" page="1" pageScale="1" pageWidth="827" pageHeight="1169" math="0" shadow="0">
      <root>
        <mxCell id="0" />
        <mxCell id="1" parent="0" />
        <mxCell id="uWeAxZecmtamJJTz2Qwh-51" style="edgeStyle=orthogonalEdgeStyle;rounded=0;orthogonalLoop=1;jettySize=auto;html=1;exitX=0.5;exitY=0;exitDx=0;exitDy=0;entryX=0.5;entryY=1;entryDx=0;entryDy=0;endArrow=none;endFill=0;" edge="1" parent="1" source="uWeAxZecmtamJJTz2Qwh-1" target="uWeAxZecmtamJJTz2Qwh-14">
          <mxGeometry relative="1" as="geometry" />
        </mxCell>
        <mxCell id="uWeAxZecmtamJJTz2Qwh-1" value="Employee" style="swimlane;whiteSpace=wrap;html=1;" vertex="1" parent="1">
          <mxGeometry x="110" y="230" width="120" height="180" as="geometry" />
        </mxCell>
        <mxCell id="uWeAxZecmtamJJTz2Qwh-11" value="&lt;div&gt;id(PK)&lt;/div&gt;&lt;div&gt;name&lt;/div&gt;&lt;div&gt;last_name&lt;/div&gt;&lt;div&gt;patronymic&lt;/div&gt;&lt;div&gt;birth_date&lt;/div&gt;&lt;div&gt;passport_number&lt;/div&gt;&lt;div&gt;phone_number&lt;/div&gt;&lt;div&gt;email&lt;/div&gt;&lt;div&gt;nationality(FK)&lt;/div&gt;&lt;div&gt;salary&lt;/div&gt;" style="text;html=1;align=left;verticalAlign=middle;resizable=0;points=[];autosize=1;strokeColor=none;fillColor=none;" vertex="1" parent="uWeAxZecmtamJJTz2Qwh-1">
          <mxGeometry x="10" y="20" width="120" height="160" as="geometry" />
        </mxCell>
        <mxCell id="uWeAxZecmtamJJTz2Qwh-12" value="Passenger" style="swimlane;whiteSpace=wrap;html=1;" vertex="1" parent="1">
          <mxGeometry x="110" y="560" width="130" height="150" as="geometry" />
        </mxCell>
        <mxCell id="uWeAxZecmtamJJTz2Qwh-13" value="&lt;div&gt;id(PK)&lt;/div&gt;&lt;div&gt;name&lt;/div&gt;&lt;div&gt;last_name&lt;/div&gt;&lt;div&gt;patronymic&lt;/div&gt;&lt;div&gt;birth_date&lt;/div&gt;&lt;div&gt;passport_number&lt;/div&gt;&lt;div&gt;phone_number&lt;/div&gt;&lt;div&gt;email&lt;/div&gt;" style="text;html=1;align=left;verticalAlign=middle;resizable=0;points=[];autosize=1;strokeColor=none;fillColor=none;" vertex="1" parent="uWeAxZecmtamJJTz2Qwh-12">
          <mxGeometry x="10" y="20" width="120" height="130" as="geometry" />
        </mxCell>
        <mxCell id="uWeAxZecmtamJJTz2Qwh-14" value="Position" style="swimlane;whiteSpace=wrap;html=1;" vertex="1" parent="1">
          <mxGeometry x="130" y="114.5" width="80" height="64" as="geometry" />
        </mxCell>
        <mxCell id="uWeAxZecmtamJJTz2Qwh-15" value="&lt;div&gt;id(PK)&lt;/div&gt;&lt;div&gt;name&lt;/div&gt;" style="text;html=1;align=left;verticalAlign=middle;resizable=0;points=[];autosize=1;strokeColor=none;fillColor=none;" vertex="1" parent="uWeAxZecmtamJJTz2Qwh-14">
          <mxGeometry x="10" y="24" width="60" height="40" as="geometry" />
        </mxCell>
        <mxCell id="uWeAxZecmtamJJTz2Qwh-63" style="edgeStyle=orthogonalEdgeStyle;rounded=0;orthogonalLoop=1;jettySize=auto;html=1;entryX=0.25;entryY=0;entryDx=0;entryDy=0;endArrow=none;endFill=0;" edge="1" parent="1" target="uWeAxZecmtamJJTz2Qwh-12">
          <mxGeometry relative="1" as="geometry">
            <mxPoint x="110" y="500" as="sourcePoint" />
            <Array as="points">
              <mxPoint x="143" y="500" />
            </Array>
          </mxGeometry>
        </mxCell>
        <mxCell id="uWeAxZecmtamJJTz2Qwh-16" value="Status" style="swimlane;whiteSpace=wrap;html=1;" vertex="1" parent="1">
          <mxGeometry x="20" y="440" width="90" height="80" as="geometry" />
        </mxCell>
        <mxCell id="uWeAxZecmtamJJTz2Qwh-17" value="&lt;div&gt;id(PK)&lt;/div&gt;&lt;div&gt;name&lt;/div&gt;&lt;div&gt;description&lt;/div&gt;" style="text;html=1;align=left;verticalAlign=middle;resizable=0;points=[];autosize=1;strokeColor=none;fillColor=none;" vertex="1" parent="uWeAxZecmtamJJTz2Qwh-16">
          <mxGeometry x="10" y="22" width="80" height="60" as="geometry" />
        </mxCell>
        <mxCell id="uWeAxZecmtamJJTz2Qwh-18" value="City" style="swimlane;whiteSpace=wrap;html=1;" vertex="1" parent="1">
          <mxGeometry x="430" y="490" width="80" height="64" as="geometry" />
        </mxCell>
        <mxCell id="uWeAxZecmtamJJTz2Qwh-19" value="&lt;div&gt;id(PK)&lt;/div&gt;&lt;div&gt;name&lt;/div&gt;" style="text;html=1;align=left;verticalAlign=middle;resizable=0;points=[];autosize=1;strokeColor=none;fillColor=none;" vertex="1" parent="uWeAxZecmtamJJTz2Qwh-18">
          <mxGeometry x="10" y="24" width="60" height="40" as="geometry" />
        </mxCell>
        <mxCell id="uWeAxZecmtamJJTz2Qwh-42" style="edgeStyle=orthogonalEdgeStyle;rounded=0;orthogonalLoop=1;jettySize=auto;html=1;exitX=0.5;exitY=0;exitDx=0;exitDy=0;entryX=0;entryY=0.5;entryDx=0;entryDy=0;endArrow=none;endFill=0;" edge="1" parent="1" source="uWeAxZecmtamJJTz2Qwh-20" target="uWeAxZecmtamJJTz2Qwh-22">
          <mxGeometry relative="1" as="geometry" />
        </mxCell>
        <mxCell id="uWeAxZecmtamJJTz2Qwh-20" value="Country" style="swimlane;whiteSpace=wrap;html=1;" vertex="1" parent="1">
          <mxGeometry x="270" y="460" width="80" height="64" as="geometry" />
        </mxCell>
        <mxCell id="uWeAxZecmtamJJTz2Qwh-21" value="&lt;div&gt;id(PK)&lt;/div&gt;&lt;div&gt;name&lt;/div&gt;" style="text;html=1;align=left;verticalAlign=middle;resizable=0;points=[];autosize=1;strokeColor=none;fillColor=none;" vertex="1" parent="uWeAxZecmtamJJTz2Qwh-20">
          <mxGeometry x="10" y="24" width="60" height="40" as="geometry" />
        </mxCell>
        <mxCell id="uWeAxZecmtamJJTz2Qwh-22" value="Location" style="swimlane;whiteSpace=wrap;html=1;" vertex="1" parent="1">
          <mxGeometry x="330" y="350" width="101" height="80" as="geometry" />
        </mxCell>
        <mxCell id="uWeAxZecmtamJJTz2Qwh-23" value="&lt;div&gt;id(PK)&lt;/div&gt;&lt;div&gt;country_id(FK)&lt;/div&gt;&lt;div&gt;city_id(FK)&lt;br&gt;&lt;/div&gt;" style="text;html=1;align=left;verticalAlign=middle;resizable=0;points=[];autosize=1;strokeColor=none;fillColor=none;" vertex="1" parent="uWeAxZecmtamJJTz2Qwh-22">
          <mxGeometry x="10" y="20" width="100" height="60" as="geometry" />
        </mxCell>
        <mxCell id="uWeAxZecmtamJJTz2Qwh-53" style="edgeStyle=orthogonalEdgeStyle;rounded=0;orthogonalLoop=1;jettySize=auto;html=1;exitX=0.5;exitY=0;exitDx=0;exitDy=0;entryX=0.5;entryY=1;entryDx=0;entryDy=0;endArrow=none;endFill=0;" edge="1" parent="1" source="uWeAxZecmtamJJTz2Qwh-24" target="uWeAxZecmtamJJTz2Qwh-28">
          <mxGeometry relative="1" as="geometry" />
        </mxCell>
        <mxCell id="uWeAxZecmtamJJTz2Qwh-24" value="Airport" style="swimlane;whiteSpace=wrap;html=1;" vertex="1" parent="1">
          <mxGeometry x="330" y="240" width="110" height="80" as="geometry" />
        </mxCell>
        <mxCell id="uWeAxZecmtamJJTz2Qwh-25" value="&lt;div&gt;id&lt;/div&gt;&lt;div&gt;name&lt;/div&gt;&lt;div&gt;location_id(FK)&lt;/div&gt;" style="text;html=1;align=left;verticalAlign=middle;resizable=0;points=[];autosize=1;strokeColor=none;fillColor=none;" vertex="1" parent="uWeAxZecmtamJJTz2Qwh-24">
          <mxGeometry x="10" y="20" width="100" height="60" as="geometry" />
        </mxCell>
        <mxCell id="uWeAxZecmtamJJTz2Qwh-65" style="edgeStyle=orthogonalEdgeStyle;rounded=0;orthogonalLoop=1;jettySize=auto;html=1;exitX=0;exitY=0.5;exitDx=0;exitDy=0;entryX=1;entryY=0.5;entryDx=0;entryDy=0;endArrow=none;endFill=0;" edge="1" parent="1" source="uWeAxZecmtamJJTz2Qwh-26" target="uWeAxZecmtamJJTz2Qwh-28">
          <mxGeometry relative="1" as="geometry" />
        </mxCell>
        <mxCell id="uWeAxZecmtamJJTz2Qwh-26" value="Plane" style="swimlane;whiteSpace=wrap;html=1;" vertex="1" parent="1">
          <mxGeometry x="520" y="74" width="200" height="105" as="geometry" />
        </mxCell>
        <mxCell id="uWeAxZecmtamJJTz2Qwh-27" value="&lt;div&gt;id&lt;/div&gt;&lt;div&gt;manufaction_corporation_id(FK)&lt;/div&gt;&lt;div&gt;serve_from&lt;/div&gt;&lt;div&gt;expire_at&lt;/div&gt;&lt;div&gt;next_technical_inspection&lt;/div&gt;" style="text;html=1;align=left;verticalAlign=middle;resizable=0;points=[];autosize=1;strokeColor=none;fillColor=none;" vertex="1" parent="uWeAxZecmtamJJTz2Qwh-26">
          <mxGeometry x="5" y="19" width="190" height="90" as="geometry" />
        </mxCell>
        <mxCell id="uWeAxZecmtamJJTz2Qwh-56" style="edgeStyle=orthogonalEdgeStyle;rounded=0;orthogonalLoop=1;jettySize=auto;html=1;exitX=0;exitY=0.5;exitDx=0;exitDy=0;entryX=1;entryY=0.5;entryDx=0;entryDy=0;endArrow=none;endFill=0;" edge="1" parent="1" source="uWeAxZecmtamJJTz2Qwh-28" target="uWeAxZecmtamJJTz2Qwh-1">
          <mxGeometry relative="1" as="geometry" />
        </mxCell>
        <mxCell id="uWeAxZecmtamJJTz2Qwh-28" value="Flight" style="swimlane;whiteSpace=wrap;html=1;" vertex="1" parent="1">
          <mxGeometry x="315" y="60" width="140" height="133" as="geometry" />
        </mxCell>
        <mxCell id="uWeAxZecmtamJJTz2Qwh-29" value="&lt;div&gt;id&lt;/div&gt;&lt;div&gt;departure_date&lt;/div&gt;&lt;div&gt;departure_airport_id(FK)&lt;/div&gt;&lt;div&gt;arrival_date&lt;/div&gt;&lt;div&gt;arrival_airport_id(FK)&lt;/div&gt;&lt;div&gt;plane_id(FK&lt;span style=&quot;background-color: initial;&quot;&gt;)&lt;/span&gt;&lt;/div&gt;&lt;div&gt;is_delayed&lt;/div&gt;" style="text;html=1;align=left;verticalAlign=middle;resizable=0;points=[];autosize=1;strokeColor=none;fillColor=none;" vertex="1" parent="uWeAxZecmtamJJTz2Qwh-28">
          <mxGeometry x="5" y="23" width="150" height="110" as="geometry" />
        </mxCell>
        <mxCell id="uWeAxZecmtamJJTz2Qwh-33" value="Black_list" style="swimlane;whiteSpace=wrap;html=1;" vertex="1" parent="1">
          <mxGeometry x="310" y="600" width="90" height="70" as="geometry" />
        </mxCell>
        <mxCell id="uWeAxZecmtamJJTz2Qwh-34" value="&lt;div&gt;id&lt;/div&gt;&lt;div&gt;passenger_id&lt;/div&gt;&lt;div&gt;description&lt;/div&gt;" style="text;html=1;align=left;verticalAlign=middle;resizable=0;points=[];autosize=1;strokeColor=none;fillColor=none;" vertex="1" parent="uWeAxZecmtamJJTz2Qwh-33">
          <mxGeometry x="10" y="17" width="100" height="60" as="geometry" />
        </mxCell>
        <mxCell id="uWeAxZecmtamJJTz2Qwh-35" value="Ticket" style="swimlane;whiteSpace=wrap;html=1;" vertex="1" parent="1">
          <mxGeometry x="529.5" y="575" width="110.5" height="120" as="geometry" />
        </mxCell>
        <mxCell id="uWeAxZecmtamJJTz2Qwh-36" value="&lt;div&gt;id&lt;/div&gt;&lt;div&gt;purchase_time&lt;/div&gt;&lt;div&gt;passenger_id(FK)&lt;/div&gt;&lt;div&gt;price&lt;/div&gt;&lt;div&gt;flight_id(FK)&lt;/div&gt;&lt;div&gt;class_id(FK)&lt;/div&gt;" style="text;html=1;align=left;verticalAlign=middle;resizable=0;points=[];autosize=1;strokeColor=none;fillColor=none;" vertex="1" parent="uWeAxZecmtamJJTz2Qwh-35">
          <mxGeometry x="10" y="20" width="120" height="100" as="geometry" />
        </mxCell>
        <mxCell id="uWeAxZecmtamJJTz2Qwh-37" value="Class" style="swimlane;whiteSpace=wrap;html=1;" vertex="1" parent="1">
          <mxGeometry x="640" y="448" width="80" height="64" as="geometry" />
        </mxCell>
        <mxCell id="uWeAxZecmtamJJTz2Qwh-38" value="&lt;div&gt;id(PK)&lt;/div&gt;&lt;div&gt;name&lt;/div&gt;" style="text;html=1;align=left;verticalAlign=middle;resizable=0;points=[];autosize=1;strokeColor=none;fillColor=none;" vertex="1" parent="uWeAxZecmtamJJTz2Qwh-37">
          <mxGeometry x="10" y="24" width="60" height="40" as="geometry" />
        </mxCell>
        <mxCell id="uWeAxZecmtamJJTz2Qwh-71" style="edgeStyle=orthogonalEdgeStyle;rounded=0;orthogonalLoop=1;jettySize=auto;html=1;exitX=0.5;exitY=0;exitDx=0;exitDy=0;entryX=0.5;entryY=1;entryDx=0;entryDy=0;endArrow=none;endFill=0;" edge="1" parent="1" source="uWeAxZecmtamJJTz2Qwh-39" target="uWeAxZecmtamJJTz2Qwh-26">
          <mxGeometry relative="1" as="geometry" />
        </mxCell>
        <mxCell id="uWeAxZecmtamJJTz2Qwh-39" value="Corporation" style="swimlane;whiteSpace=wrap;html=1;" vertex="1" parent="1">
          <mxGeometry x="640" y="240" width="100" height="64" as="geometry" />
        </mxCell>
        <mxCell id="uWeAxZecmtamJJTz2Qwh-40" value="&lt;div&gt;id(PK)&lt;/div&gt;&lt;div&gt;name&lt;/div&gt;" style="text;html=1;align=left;verticalAlign=middle;resizable=0;points=[];autosize=1;strokeColor=none;fillColor=none;" vertex="1" parent="uWeAxZecmtamJJTz2Qwh-39">
          <mxGeometry x="10" y="24" width="60" height="40" as="geometry" />
        </mxCell>
        <mxCell id="uWeAxZecmtamJJTz2Qwh-44" style="edgeStyle=orthogonalEdgeStyle;rounded=0;orthogonalLoop=1;jettySize=auto;html=1;exitX=0.5;exitY=0;exitDx=0;exitDy=0;endArrow=none;endFill=0;" edge="1" parent="1" source="uWeAxZecmtamJJTz2Qwh-18">
          <mxGeometry relative="1" as="geometry">
            <mxPoint x="431" y="400" as="targetPoint" />
            <Array as="points">
              <mxPoint x="470" y="460" />
              <mxPoint x="470" y="400" />
            </Array>
          </mxGeometry>
        </mxCell>
        <mxCell id="uWeAxZecmtamJJTz2Qwh-47" style="edgeStyle=orthogonalEdgeStyle;rounded=0;orthogonalLoop=1;jettySize=auto;html=1;exitX=0.5;exitY=0;exitDx=0;exitDy=0;entryX=0.408;entryY=1.007;entryDx=0;entryDy=0;entryPerimeter=0;endArrow=none;endFill=0;" edge="1" parent="1" source="uWeAxZecmtamJJTz2Qwh-22" target="uWeAxZecmtamJJTz2Qwh-25">
          <mxGeometry relative="1" as="geometry" />
        </mxCell>
        <mxCell id="uWeAxZecmtamJJTz2Qwh-49" style="edgeStyle=orthogonalEdgeStyle;rounded=0;orthogonalLoop=1;jettySize=auto;html=1;exitX=0;exitY=0.5;exitDx=0;exitDy=0;entryX=0.392;entryY=1.004;entryDx=0;entryDy=0;entryPerimeter=0;endArrow=none;endFill=0;" edge="1" parent="1" source="uWeAxZecmtamJJTz2Qwh-20" target="uWeAxZecmtamJJTz2Qwh-11">
          <mxGeometry relative="1" as="geometry">
            <Array as="points">
              <mxPoint x="270" y="480" />
              <mxPoint x="167" y="480" />
            </Array>
          </mxGeometry>
        </mxCell>
        <mxCell id="uWeAxZecmtamJJTz2Qwh-50" style="edgeStyle=orthogonalEdgeStyle;rounded=0;orthogonalLoop=1;jettySize=auto;html=1;exitX=0;exitY=0.5;exitDx=0;exitDy=0;entryX=0.477;entryY=-0.005;entryDx=0;entryDy=0;entryPerimeter=0;endArrow=none;endFill=0;" edge="1" parent="1" source="uWeAxZecmtamJJTz2Qwh-20" target="uWeAxZecmtamJJTz2Qwh-12">
          <mxGeometry relative="1" as="geometry" />
        </mxCell>
        <mxCell id="uWeAxZecmtamJJTz2Qwh-62" style="edgeStyle=orthogonalEdgeStyle;rounded=0;orthogonalLoop=1;jettySize=auto;html=1;exitX=1;exitY=0.5;exitDx=0;exitDy=0;entryX=0.118;entryY=1.002;entryDx=0;entryDy=0;entryPerimeter=0;endArrow=none;endFill=0;" edge="1" parent="1" source="uWeAxZecmtamJJTz2Qwh-16" target="uWeAxZecmtamJJTz2Qwh-11">
          <mxGeometry relative="1" as="geometry" />
        </mxCell>
        <mxCell id="uWeAxZecmtamJJTz2Qwh-67" style="edgeStyle=orthogonalEdgeStyle;rounded=0;orthogonalLoop=1;jettySize=auto;html=1;exitX=0;exitY=0.5;exitDx=0;exitDy=0;entryX=1.007;entryY=0.424;entryDx=0;entryDy=0;entryPerimeter=0;endArrow=none;endFill=0;" edge="1" parent="1" source="uWeAxZecmtamJJTz2Qwh-33" target="uWeAxZecmtamJJTz2Qwh-13">
          <mxGeometry relative="1" as="geometry" />
        </mxCell>
        <mxCell id="uWeAxZecmtamJJTz2Qwh-72" style="edgeStyle=orthogonalEdgeStyle;rounded=0;orthogonalLoop=1;jettySize=auto;html=1;exitX=0.5;exitY=0;exitDx=0;exitDy=0;entryX=0.58;entryY=1;entryDx=0;entryDy=0;entryPerimeter=0;endArrow=none;endFill=0;" edge="1" parent="1" source="uWeAxZecmtamJJTz2Qwh-35" target="uWeAxZecmtamJJTz2Qwh-29">
          <mxGeometry relative="1" as="geometry">
            <Array as="points">
              <mxPoint x="585" y="384" />
              <mxPoint x="510" y="384" />
              <mxPoint x="510" y="220" />
              <mxPoint x="407" y="220" />
            </Array>
          </mxGeometry>
        </mxCell>
        <mxCell id="uWeAxZecmtamJJTz2Qwh-73" style="edgeStyle=orthogonalEdgeStyle;rounded=0;orthogonalLoop=1;jettySize=auto;html=1;exitX=0;exitY=0.5;exitDx=0;exitDy=0;entryX=0.425;entryY=1.008;entryDx=0;entryDy=0;entryPerimeter=0;endArrow=none;endFill=0;" edge="1" parent="1" source="uWeAxZecmtamJJTz2Qwh-35" target="uWeAxZecmtamJJTz2Qwh-13">
          <mxGeometry relative="1" as="geometry">
            <Array as="points">
              <mxPoint x="530" y="680" />
              <mxPoint x="385" y="680" />
              <mxPoint x="385" y="730" />
              <mxPoint x="171" y="730" />
            </Array>
          </mxGeometry>
        </mxCell>
        <mxCell id="uWeAxZecmtamJJTz2Qwh-74" style="edgeStyle=orthogonalEdgeStyle;rounded=0;orthogonalLoop=1;jettySize=auto;html=1;exitX=0.75;exitY=0;exitDx=0;exitDy=0;entryX=0.5;entryY=1.025;entryDx=0;entryDy=0;entryPerimeter=0;endArrow=none;endFill=0;" edge="1" parent="1" source="uWeAxZecmtamJJTz2Qwh-35" target="uWeAxZecmtamJJTz2Qwh-38">
          <mxGeometry relative="1" as="geometry" />
        </mxCell>
      </root>
    </mxGraphModel>
  </diagram>
</mxfile>
